:SAMPLES-PER-SECOND 30
:FULLY-SPECIFIED
:DEGREES
1264
root  33.3319 39.7542 12.7131 82.8655 87.6761 85.3123
RightUpLeg  -11.1084 -22.085 -6.51826
RightLeg  21.7473 -4.70745 -2.22425
RightFoot  -4.72592 0.0136465 -0.792033
RightToes  0.000481921 0.542163 -0.142578
Spine  21.2329 -1.12263 7.14229
Spine1  9.78526 -0.997292 4.20192
HEad  10.558 -2.04453 -2.97869
LeftShoulder1  3.03286 -10.7408 -14.3286
LeftArm  -14.1727 -34.8785 -29.2645
LeftForeArm  -162.455 -71.5544 -155.668
LeftHand  -0.25398 0.0180481 5.50724
RightShoulder  2.57427 7.90931 15.9057
RightArm  -12.7084 23.7669 42.3083
RightForeArm  -172.29 67.5913 159.284
RightHand  0.0201347 -3.30961 2.20834
LeftUpLeg  -4.2506 15.2764 10.5259
LeftLeg  9.48098 10.6559 -0.907021
LeftFoot  3.14135 1.04848 -8.39177
LeftToes  1.06244e-005 4.65869e-005 -8.65518e-006
1265
root  34.0383 39.8519 12.8946 69.0759 87.9535 71.6372
RightUpLeg  -9.18071 -21.4884 -6.36648
RightLeg  20.7514 -4.92856 -1.98523
RightFoot  -5.49313 -0.00555661 -0.621732
RightToes  0.000481921 0.542163 -0.142578
Spine  18.6895 -1.1986 6.0888
Spine1  10.1796 -1.75704 5.43457
HEad  11.4996 0.876692 -4.48988
LeftShoulder1  4.93843 -11.5369 -26.8098
LeftArm  -10.6622 -16.3034 -26.4504
LeftForeArm  -161.961 -60.0115 -165.55
LeftHand  -0.25398 0.0180481 5.50724
RightShoulder  3.48622 7.67883 25.0739
RightArm  -9.42322 3.51901 39.8687
RightForeArm  -171.114 58.2093 165.743
RightHand  0.0201859 -0.891899 0.948023
LeftUpLeg  -1.99333 13.478 11.7122
LeftLeg  7.92601 12.5543 -1.29707
LeftFoot  2.81901 1.13902 -9.29514
LeftToes  1.06244e-005 4.65869e-005 -8.65518e-006
1266
root  34.632 39.8347 13.0347 41.5464 87.7815 44.5281
RightUpLeg  -7.85888 -20.2186 -6.02958
RightLeg  20.941 -5.14818 -2.16892
RightFoot  -6.65302 -0.0311497 -0.335181
RightToes  0.000481921 0.542163 -0.142578
Spine  16.3348 -1.74144 4.80644
Spine1  11.9252 -2.87775 5.98411
HEad  10.9766 4.43973 -5.18696
LeftShoulder1  5.85101 -10.6021 -35.436
LeftArm  -11.3525 1.41205 -25.2223
LeftForeArm  -165.893 -53.0799 -168.455
LeftHand  -0.25398 0.0180481 5.50724
RightShoulder  3.89222 7.32852 29.9683
RightArm  -8.70525 -14.2829 41.4455
RightForeArm  -173.861 54.4028 167.269
RightHand  -0.0926533 1.84536 -1.76083
LeftUpLeg  -0.337423 14.0118 12.8608
LeftLeg  8.25301 12.471 -1.10828
LeftFoot  1.67497 1.15151 -10.1678
LeftToes  1.06244e-005 4.65869e-005 -8.65518e-006
1267
root  35.0559 39.6555 13.1312 20.4036 86.7356 24.0359
RightUpLeg  -7.73895 -18.2183 -5.75019
RightLeg  23.1909 -5.52324 -2.83984
RightFoot  -8.36439 -0.0606032 0.168899
RightToes  0.000481921 0.542163 -0.142578
Spine  14.7359 -2.4572 3.34427
Spine1  13.6278 -3.83467 5.512
HEad  10.5953 7.6347 -4.10421
LeftShoulder1  5.71185 -9.25489 -38.5467
LeftArm  -15.009 16.189 -29.594
LeftForeArm  -167.86 -49.2804 -169.775
LeftHand  -0.25398 0.0180481 5.50724
RightShoulder  3.85891 6.88319 31.1945
RightArm  -9.52826 -26.9027 45.4433
RightForeArm  178.387 54.4969 166.59
RightHand  -0.1908 1.42481 -3.43076
LeftUpLeg  0.182397 17.698 13.7789
LeftLeg  11.1893 9.46699 -0.0174137
LeftFoot  -0.526684 1.06042 -11.1559
LeftToes  1.06244e-005 4.65869e-005 -8.65518e-006
1268
root  35.2681 39.3012 13.1737 10.9971 85.4807 15.8169
RightUpLeg  -8.29128 -15.7216 -5.68271
RightLeg  27.2779 -6.27644 -3.73803
RightFoot  -10.4181 -0.0763164 0.700202
RightToes  0.000481921 0.542163 -0.142578
Spine  14.7065 -2.95517 1.85522
Spine1  14.1185 -4.42588 5.20244
HEad  11.5551 9.75489 -1.70922
LeftShoulder1  5.63163 -8.97953 -38.8977
LeftArm  -19.507 25.1013 -35.0834
LeftForeArm  -168.029 -48.0781 -170.18
LeftHand  -0.25398 0.0180481 5.50724
RightShoulder  3.63842 6.49463 30.4277
RightArm  -9.1851 -32.8079 47.6752
RightForeArm  172.122 55.9026 165.402
RightHand  -0.223244 1.16907 -4.09079
LeftUpLeg  -0.252491 22.5209 14.6477
LeftLeg  16.439 5.03906 1.6648
LeftFoot  -3.5106 0.857281 -12.1849
LeftToes  1.06244e-005 4.65869e-005 -8.65518e-006
1269
root  35.299 38.8345 13.1346 0.946533 84.392 7.62402
RightUpLeg  -8.52547 -14.0587 -5.43205
RightLeg  31.6682 -6.3947 -4.48233
RightFoot  -12.372 -0.0758757 0.933037
RightToes  0.000481921 0.542163 -0.142578
Spine  16.066 -3.26933 1.42195
Spine1  13.9871 -4.72297 5.35931
HEad  12.1792 10.5431 -0.529716
LeftShoulder1  6.21416 -10.1035 -39.4277
LeftArm  -21.2139 27.2342 -35.9547
LeftForeArm  -168.278 -48.4404 -170.033
LeftHand  -0.25398 0.0180481 5.50724
RightShoulder  3.45234 6.4178 28.8105
RightArm  -7.64366 -32.8414 47.4812
RightForeArm  174.245 56.0886 165.469
RightHand  -0.24372 2.51801 -3.82873
LeftUpLeg  -0.814568 22.1751 16.0697
LeftLeg  22.7465 5.23338 2.79699
LeftFoot  -6.60002 0.573488 -12.8316
LeftToes  1.06244e-005 4.65869e-005 -8.65518e-006
1270
root  35.2498 38.383 13.0077 -10.0034 83.0001 -1.46338
RightUpLeg  -8.38584 -13.0706 -4.83833
RightLeg  35.0047 -5.87973 -4.6707
RightFoot  -13.8827 -0.0763405 0.804657
RightToes  0.000481921 0.542163 -0.142578
Spine  17.4506 -3.57782 2.4874
Spine1  14.3097 -4.75585 5.24195
HEad  11.7481 10.8886 -0.807687
LeftShoulder1  6.93411 -11.4007 -40.2626
LeftArm  -19.3111 23.53 -32.4871
LeftForeArm  -168.559 -49.2523 -169.723
LeftHand  -0.25398 0.0180481 5.50724
RightShoulder  3.39413 6.61744 27.5134
RightArm  -6.77646 -28.3375 45.7926
RightForeArm  178.93 54.9527 166.422
RightHand  -0.189193 2.59606 -2.9979
LeftUpLeg  -1.06458 21.102 17.7823
LeftLeg  28.326 6.21763 3.95795
LeftFoot  -9.22226 0.297138 -13.0133
LeftToes  1.06244e-005 4.65869e-005 -8.65518e-006
1271
root  35.2159 38.0501 12.8217 -15.45 80.7454 -5.86548
RightUpLeg  -8.6721 -11.9844 -4.21406
RightLeg  37.0769 -4.96761 -4.29149
RightFoot  -14.7997 -0.0837597 0.539979
RightToes  0.000481921 0.542163 -0.142578
Spine  17.8373 -3.68787 3.6419
Spine1  15.0353 -4.63931 4.98374
HEad  11.3745 11.8889 -1.66236
LeftShoulder1  7.16234 -11.8929 -40.2548
LeftArm  -16.5523 16.5181 -29.3979
LeftForeArm  -168.067 -50.3558 -169.34
LeftHand  -0.25398 0.0180481 5.50724
RightShoulder  3.5733 7.01855 27.9408
RightArm  -6.58005 -19.5637 42.0681
RightForeArm  177.95 54.8776 166.381
RightHand  -0.181635 1.55046 -3.21537
LeftUpLeg  -0.963535 21.0971 19.1066
LeftLeg  32.0766 7.09364 5.11383
LeftFoot  -11.2042 0.0823542 -13.141
LeftToes  1.06244e-005 4.65869e-005 -8.65518e-006
1272
root  35.2375 37.8855 12.5881 -14.873 77.6213 -5.20752
RightUpLeg  -9.66322 -10.2771 -3.8814
RightLeg  38.0496 -3.88564 -3.53587
RightFoot  -14.9848 -0.0895363 0.37027
RightToes  0.000481921 0.542163 -0.142578
Spine  17.3189 -3.33798 3.49577
Spine1  15.476 -4.62594 5.68744
HEad  11.9611 14.2124 -3.0092
LeftShoulder1  6.97653 -11.7343 -39.5565
LeftArm  -14.9743 9.30734 -28.8655
LeftForeArm  -167.9 -52.124 -168.649
LeftHand  -0.25398 0.0180481 5.50724
RightShoulder  4.05802 7.72252 30.1723
RightArm  -6.5984 -7.05045 36.898
RightForeArm  172.802 57.5965 164.496
RightHand  -0.272507 1.40583 -4.80178
LeftUpLeg  -0.414447 22.5267 19.8018
LeftLeg  33.8518 7.89949 6.01566
LeftFoot  -12.4883 -0.0622735 -13.6043
LeftToes  1.06244e-005 4.65869e-005 -8.65518e-006
1273
root  35.3193 37.9231 12.2952 -12.3716 74.0408 -3.32324
RightUpLeg  -10.8342 -8.34736 -3.88328
RightLeg  37.6196 -2.63262 -2.4554
RightFoot  -14.3111 -0.0880287 0.338761
RightToes  0.000481921 0.542163 -0.142578
Spine  16.3106 -2.76564 2.63582
Spine1  15.3572 -4.7424 7.23148
HEad  12.6645 17.4375 -5.63169
LeftShoulder1  6.7346 -11.4143 -38.9483
LeftArm  -14.5839 3.50832 -29.3596
LeftForeArm  -168.703 -53.8084 -167.883
LeftHand  -0.25398 0.0180481 5.50724
RightShoulder  4.65672 8.65079 32.3777
RightArm  -6.88619 5.61125 33.7304
RightForeArm  170.706 61.8996 161.549
RightHand  -0.339741 1.79958 -5.68876
LeftUpLeg  0.58157 25.0774 20.0087
LeftLeg  33.7712 8.69108 6.55747
LeftFoot  -12.927 -0.119824 -14.2041
LeftToes  1.06244e-005 4.65869e-005 -8.65518e-006
1274
root  35.4593 38.1873 11.9423 -9.76685 70.674 -1.90723
RightUpLeg  -11.644 -6.97124 -4.1976
RightLeg  35.3054 -1.1103 -1.1177
RightFoot  -12.7267 -0.0810366 0.43522
RightToes  0.000481921 0.542163 -0.142578
Spine  15.0425 -2.35865 2.60994
Spine1  14.5482 -4.60877 7.999
HEad  12.6877 20.3449 -9.12499
LeftShoulder1  6.55251 -11.1668 -38.4885
LeftArm  -14.5658 -0.699394 -29.4439
LeftForeArm  -168.978 -54.2079 -167.681
LeftHand  -0.25398 0.0180481 5.50724
RightShoulder  5.02342 9.43437 32.8925
RightArm  -7.0641 13.7709 34.9951
RightForeArm  172.543 65.0362 159.22
RightHand  -0.335786 1.76772 -5.64236
LeftUpLeg  1.75647 28.0014 19.5948
LeftLeg  31.7582 9.72861 6.77907
LeftFoot  -12.4009 -0.0597683 -14.3858
LeftToes  1.06244e-005 4.65869e-005 -8.65518e-006
